<?xml version="1.0" encoding="UTF-8"?>
<svg xmlns="http://www.w3.org/2000/svg" id="Layer_1" data-name="Layer 1" version="1.1" viewBox="0 0 288 288">
  <defs>
    <style>
      .cls-1 {
        fill:rgb(224, 221, 222);
        stroke-width: 0px;
      }
    </style>
  </defs>
  <path class="cls-1" d="M124.6,254.4c9.1,0,16.4,7.4,16.4,16.4s-7.4,16.4-16.4,16.4-16.4-7.4-16.4-16.4,7.4-16.4,16.4-16.4ZM215.8,224.4l16.2,4.8-12.9,43.5c-1.1,3.8-4.7,6.3-8.7,6l-4-.3h0c0,0-41.4-2.8-41.4-2.8l1.2-16.9,27.8,1.9-18.2-26.3,13.9-9.7,18.2,26.3,7.9-26.6ZM39,194.3l16.9,1.2-2,27.8,26.2-18.2,9.7,13.9-26.2,18.2,26.8,7.9-4.8,16.3-43.7-12.9c-3.8-1.1-6.3-4.8-6.1-8.7l3.2-45.5ZM148.2,170.7l30.5,36.8-13.7,11.4-18.2-21.9-5.9,33.7-17.6-3.1,5.9-33.8-24.4,14.4-9.1-15.4,41.1-24.2c3.8-2.2,8.6-1.4,11.4,2ZM233.5,146l15.2-8.3,22.2,40.8c1.9,3.6,1.1,8-1.9,10.7l-3.1,2.7-32.1,27.9-11.4-13.1,21.5-18.7-32.1-5.8,3.1-17.1,32.1,5.8-13.5-24.9ZM53.8,103.3l11.5,13-21.3,18.7,32.2,5.6-3,17.1-32.2-5.6,13.8,25-15.2,8.4-22.6-40.8c-2-3.6-1.2-8,1.9-10.7l34.8-30.8ZM162.5,89.9l30.4,36.7-13.8,11.4-18.2-21.9-5.9,33.7-17.6-3.1,5.9-33.6-24.3,14.3-9-15.4,37.4-21.9h0c0-.1.2-.1.2-.1l3.5-2c3.8-2.2,8.6-1.4,11.4,2ZM201.7,71.8l6.6-16,43,17.8c3.8,1.6,5.9,5.5,5.2,9.5l-.7,4-7.3,41.8-17.1-3,4.9-28-28.5,15.8-8.4-15.2,28.6-15.8-26.3-10.9ZM119.7,40.2l.7,17.3-28.4,1.2,21.4,24.5-13.1,11.4-21.5-24.5-5,28-17.1-3.1,8.2-45.8c.7-4,4.1-7,8.2-7.1l4-.2h0c0,0,42.4-1.8,42.4-1.8ZM177.8,3.3l30.3,37-13.8,11.3-18-21.9-6.1,33.7-17.6-3.2,6.1-33.7-24.5,14.3-9-15.4L166.4,1.2c3.8-2.2,8.6-1.3,11.4,2.1Z"></path>
</svg>
